<?xml version="1.0" standalone="no"?>
<!DOCTYPE svg PUBLIC "-//W3C//DTD SVG 20010904//EN"
 "http://www.w3.org/TR/2001/REC-SVG-20010904/DTD/svg10.dtd">
<svg version="1.0" xmlns="http://www.w3.org/2000/svg"
 width="156.000000pt" height="131.000000pt" viewBox="0 0 156.000000 131.000000"
 preserveAspectRatio="xMidYMid meet">

<g transform="translate(0.000000,131.000000) scale(0.100000,-0.100000)"
fill="#000000" stroke="none">
<path d="M740 1275 c-47 -12 -200 -53 -340 -90 -309 -81 -310 -81 -310 -199 0
-68 4 -82 43 -158 63 -123 416 -685 459 -731 38 -40 38 -40 100 -35 41 4 81
15 113 31 28 15 79 40 115 56 99 44 332 152 450 209 113 54 162 94 142 114 -9
9 -12 9 -12 -3 0 -10 -95 -59 -277 -144 -153 -71 -316 -146 -363 -168 -101
-47 -158 -57 -195 -33 -61 40 -50 104 24 151 30 19 462 197 844 348 15 6 27
14 27 17 0 7 -30 36 -360 350 -124 118 -247 236 -275 262 -58 55 -65 56 -185
23z"/>
<path d="M787 273 c-11 -3 -16 -10 -13 -20 3 -8 6 -24 6 -36 0 -30 41 -49 65
-31 18 13 18 15 0 54 -18 40 -23 42 -58 33z"/>
</g>
</svg>
